<svg xmlns="http://www.w3.org/2000/svg" width="512" height="512"><g xmlns="http://www.w3.org/2000/svg"><path d="M292.418 228.418l64-64c8.331-8.331 8.331-21.839 0-30.17-8.331-8.331-21.839-8.331-30.17 0l-64 64c-8.331 8.331-8.331 21.839 0 30.17 8.332 8.331 21.839 8.331 30.17 0zM420.418 100.418l64-64c8.331-8.331 8.331-21.839 0-30.17-8.331-8.331-21.839-8.331-30.17 0l-64 64c-8.331 8.331-8.331 21.839 0 30.17s21.839 8.331 30.17 0zM198.248 432.915l-42.667 42.667c-8.331 8.331-8.331 21.839 0 30.17 8.331 8.331 21.839 8.331 30.17 0l42.667-42.667c8.331-8.331 8.331-21.839 0-30.17-8.331-8.331-21.838-8.331-30.17 0zM356.418 304.915c-8.331-8.331-21.839-8.331-30.17 0l-64 64c-8.331 8.331-8.331 21.839 0 30.17 8.331 8.331 21.839 8.331 30.17 0l64-64c8.332-8.331 8.332-21.839 0-30.17zM420.418 271.085l64-64c8.331-8.331 8.331-21.839 0-30.17-8.331-8.331-21.839-8.331-30.17 0l-64 64c-8.331 8.331-8.331 21.839 0 30.17s21.839 8.331 30.17 0zM198.248 91.582l-64 64c-8.331 8.331-8.331 21.839 0 30.17 8.331 8.331 21.839 8.331 30.17 0l64-64c8.331-8.331 8.331-21.839 0-30.17s-21.838-8.331-30.17 0zM70.248 219.582l-64 64c-8.331 8.331-8.331 21.839 0 30.17 8.331 8.331 21.839 8.331 30.17 0l64-64c8.331-8.331 8.331-21.839 0-30.17s-21.838-8.331-30.17 0zM198.248 262.248l-64 64c-8.331 8.331-8.331 21.839 0 30.17 8.331 8.331 21.839 8.331 30.17 0l64-64c8.331-8.331 8.331-21.839 0-30.17-8.331-8.331-21.838-8.331-30.17 0zM70.248 390.248l-64 64c-8.331 8.331-8.331 21.839 0 30.17 8.331 8.331 21.839 8.331 30.17 0l64-64c8.331-8.331 8.331-21.839 0-30.17s-21.838-8.331-30.17 0zM292.418 57.752l21.333-21.333c8.331-8.331 8.331-21.839 0-30.17-8.331-8.331-21.839-8.331-30.17 0l-21.333 21.333c-8.331 8.331-8.331 21.839 0 30.17 8.332 8.331 21.839 8.331 30.17 0zM390.248 411.582l-64 64c-8.331 8.331-8.331 21.839 0 30.17 8.331 8.331 21.839 8.331 30.17 0l64-64c8.331-8.331 8.331-21.839 0-30.17-8.331-8.331-21.838-8.331-30.17 0zM505.752 326.248c-8.331-8.331-21.839-8.331-30.17 0l-21.333 21.333c-8.331 8.331-8.331 21.839 0 30.17 8.331 8.331 21.839 8.331 30.17 0l21.333-21.333c8.331-8.331 8.331-21.838 0-30.17z" fill="#fff" data-original="#000000"/></g></svg>